<svg id="svg" version="1.1" xmlns="http://www.w3.org/2000/svg" xmlns:xlink="http://www.w3.org/1999/xlink" width="400" height="400" viewBox="0, 0, 400,400"><g id="svgg"><path id="path0" d="M0.000 200.000 L 0.000 400.000 200.000 400.000 L 400.000 400.000 400.000 200.000 L 400.000 0.000 200.000 0.000 L 0.000 0.000 0.000 200.000 M220.800 23.985 C 302.747 32.091,367.619 95.225,378.852 177.800 C 379.648 183.654,379.828 346.958,379.042 350.726 C 376.869 361.148,367.376 370.518,356.400 373.076 C 352.786 373.918,62.843 374.440,54.187 373.620 C 38.172 372.102,27.383 362.154,25.199 346.890 C 24.557 342.407,24.879 189.294,25.541 184.000 C 26.871 173.364,28.184 165.209,29.437 159.800 C 49.466 73.303,131.415 15.142,220.800 23.985 M192.950 77.954 C 147.817 86.172,129.869 140.683,161.783 172.616 C 201.046 211.902,267.395 179.057,259.044 124.468 C 254.387 94.031,223.611 72.372,192.950 77.954 M109.491 306.529 C 101.096 309.152,102.061 320.402,110.818 322.004 C 112.287 322.273,143.838 322.375,204.218 322.305 L 295.400 322.200 297.400 321.155 C 303.440 317.999,303.467 310.301,297.450 307.082 L 295.800 306.200 203.400 306.129 C 133.415 306.074,110.634 306.172,109.491 306.529 " stroke="none" fill="#fbf9f8" fill-rule="evenodd"></path><path id="path1" d="M194.600 26.664 C 193.720 26.736,190.660 26.981,187.800 27.209 C 113.070 33.166,51.097 85.993,32.960 159.200 C 28.506 177.177,28.326 181.707,28.474 272.000 L 28.600 348.600 29.729 351.800 C 32.835 360.600,38.939 366.434,48.000 369.263 L 51.000 370.200 202.800 370.200 L 354.600 370.200 358.170 369.031 C 366.159 366.414,372.134 360.531,375.128 352.334 L 376.200 349.400 376.318 270.800 C 376.458 177.071,376.585 180.326,372.001 160.051 C 357.951 97.917,308.667 47.674,246.400 32.005 C 229.475 27.746,208.242 25.557,194.600 26.664 M207.303 74.014 C 258.891 77.524,282.016 140.620,244.753 176.200 C 206.959 212.288,143.858 187.108,142.510 135.400 C 141.683 103.664,165.556 76.679,196.800 74.034 C 198.890 73.857,200.780 73.690,201.000 73.662 C 201.220 73.635,204.056 73.793,207.303 74.014 M297.271 303.200 C 308.045 307.593,307.954 320.983,297.122 325.139 C 295.092 325.918,118.712 326.389,111.930 325.634 C 97.663 324.044,95.798 305.929,109.595 302.940 C 113.271 302.143,295.299 302.396,297.271 303.200 " stroke="none" fill="#e44b1b" fill-rule="evenodd"></path><path id="path2" d="M187.200 23.786 C 115.384 29.711,53.531 79.388,32.614 147.941 C 29.304 158.788,27.622 167.363,25.541 184.000 C 24.879 189.294,24.557 342.407,25.199 346.890 C 27.383 362.154,38.172 372.102,54.187 373.620 C 62.843 374.440,352.786 373.918,356.400 373.076 C 367.376 370.518,376.869 361.148,379.042 350.726 C 379.828 346.958,379.648 183.654,378.852 177.800 C 365.894 82.543,282.947 15.886,187.200 23.786 M212.868 26.816 C 296.373 32.478,360.770 90.711,374.598 173.064 C 376.372 183.634,376.442 187.613,376.318 270.800 L 376.200 349.400 375.128 352.334 C 372.134 360.531,366.159 366.414,358.170 369.031 L 354.600 370.200 202.800 370.200 L 51.000 370.200 48.000 369.263 C 38.939 366.434,32.835 360.600,29.729 351.800 L 28.600 348.600 28.474 272.000 C 28.326 181.707,28.506 177.177,32.960 159.200 C 51.097 85.993,113.070 33.166,187.800 27.209 C 190.660 26.981,193.720 26.736,194.600 26.664 C 198.379 26.358,207.189 26.431,212.868 26.816 M196.800 74.034 C 157.758 77.340,132.292 117.964,146.295 154.600 C 161.694 194.889,213.320 206.214,244.753 176.200 C 278.581 143.899,263.388 87.381,217.703 75.577 C 213.897 74.594,203.288 73.377,201.000 73.662 C 200.780 73.690,198.890 73.857,196.800 74.034 M213.800 78.166 C 258.603 87.226,275.193 141.758,242.833 173.600 C 213.059 202.899,162.273 190.923,148.687 151.400 C 134.722 110.776,171.348 69.582,213.800 78.166 M109.595 302.940 C 95.798 305.929,97.663 324.044,111.930 325.634 C 118.712 326.389,295.092 325.918,297.122 325.139 C 307.954 320.983,308.045 307.593,297.271 303.200 C 295.299 302.396,113.271 302.143,109.595 302.940 M297.450 307.082 C 303.467 310.301,303.440 317.999,297.400 321.155 L 295.400 322.200 204.218 322.305 C 143.838 322.375,112.287 322.273,110.818 322.004 C 102.061 320.402,101.096 309.152,109.491 306.529 C 110.634 306.172,133.415 306.074,203.400 306.129 L 295.800 306.200 297.450 307.082 " stroke="none" fill="#f4a485" fill-rule="evenodd"></path></g></svg>