<?xml version="1.0" encoding="UTF-8" standalone="no"?>
<svg
   xmlns:dc="http://purl.org/dc/elements/1.1/"
   xmlns:cc="http://creativecommons.org/ns#"
   xmlns:rdf="http://www.w3.org/1999/02/22-rdf-syntax-ns#"
   xmlns:svg="http://www.w3.org/2000/svg"
   xmlns="http://www.w3.org/2000/svg"
   xmlns:sodipodi="http://sodipodi.sourceforge.net/DTD/sodipodi-0.dtd"
   xmlns:inkscape="http://www.inkscape.org/namespaces/inkscape"
   width="400"
   height="400"
   version="1.1"
   id="svg34"
   sodipodi:docname="neatoLogv4.svg"
   inkscape:version="0.92.4 (5da689c313, 2019-01-14)">
  <metadata
     id="metadata40">
    <rdf:RDF>
      <cc:Work
         rdf:about="">
        <dc:format>image/svg+xml</dc:format>
        <dc:type
           rdf:resource="http://purl.org/dc/dcmitype/StillImage" />
      </cc:Work>
    </rdf:RDF>
  </metadata>
  <defs
     id="defs38" />
  <sodipodi:namedview
     pagecolor="#ffffff"
     bordercolor="#666666"
     borderopacity="1"
     objecttolerance="10"
     gridtolerance="10"
     guidetolerance="10"
     inkscape:pageopacity="0"
     inkscape:pageshadow="2"
     inkscape:window-width="1920"
     inkscape:window-height="1027"
     id="namedview36"
     showgrid="false"
     inkscape:zoom="2.145"
     inkscape:cx="135.66434"
     inkscape:cy="200"
     inkscape:window-x="-8"
     inkscape:window-y="-8"
     inkscape:window-maximized="1"
     inkscape:current-layer="svg34" />
  <g
     fill-rule="evenodd"
     id="g32">
    <path
       d="m 194.6,26.664 c -0.88,0.072 -3.94,0.317 -6.8,0.545 C 113.07,33.166 51.097,85.993 32.96,159.2 28.506,177.177 28.326,181.707 28.474,272 l 0.126,76.6 1.129,3.2 c 3.106,8.8 9.21,14.634 18.271,17.463 l 3,0.937 h 303.6 l 3.57,-1.169 c 7.989,-2.617 13.964,-8.5 16.958,-16.697 l 1.072,-2.934 0.118,-78.6 c 0.14,-93.729 0.267,-90.474 -4.317,-110.749 C 357.951,97.917 308.667,47.674 246.4,32.005 229.475,27.746 208.242,25.557 194.6,26.664 m 12.703,47.35 c 51.588,3.51 74.713,66.606 37.45,102.186 -37.794,36.088 -100.895,10.908 -102.243,-40.8 -0.827,-31.736 23.046,-58.721 54.29,-61.366 2.09,-0.177 3.98,-0.344 4.2,-0.372 0.22,-0.027 3.056,0.131 6.303,0.352 M 297.271,303.2 c 10.774,4.393 10.683,17.783 -0.149,21.939 -2.03,0.779 -178.41,1.25 -185.192,0.495 -14.267,-1.59 -16.132,-19.705 -2.335,-22.694 3.676,-0.797 185.704,-0.544 187.676,0.26"
       id="path28"
       inkscape:connector-curvature="0"
       style="fill:#e44b1b" />
    <path
       d="M187.2 23.786C115.384 29.711 53.531 79.388 32.614 147.941c-3.31 10.847-4.992 19.422-7.073 36.059-.662 5.294-.984 158.407-.342 162.89 2.184 15.264 12.973 25.212 28.988 26.73 8.656.82 298.599.298 302.213-.544 10.976-2.558 20.469-11.928 22.642-22.35.786-3.768.606-167.072-.19-172.926C365.894 82.543 282.947 15.886 187.2 23.786m25.668 3.03c83.505 5.662 147.902 63.895 161.73 146.248 1.774 10.57 1.844 14.549 1.72 97.736l-.118 78.6-1.072 2.934c-2.994 8.197-8.969 14.08-16.958 16.697l-3.57 1.169H51l-3-.937c-9.061-2.829-15.165-8.663-18.271-17.463l-1.129-3.2-.126-76.6c-.148-90.293.032-94.823 4.486-112.8C51.097 85.993 113.07 33.166 187.8 27.209c2.86-.228 5.92-.473 6.8-.545 3.779-.306 12.589-.233 18.268.152M196.8 74.034c-39.042 3.306-64.508 43.93-50.505 80.566 15.399 40.289 67.025 51.614 98.458 21.6 33.828-32.301 18.635-88.819-27.05-100.623-3.806-.983-14.415-2.2-16.703-1.915-.22.028-2.11.195-4.2.372m17 4.132c44.803 9.06 61.393 63.592 29.033 95.434-29.774 29.299-80.56 17.323-94.146-22.2-13.965-40.624 22.661-81.818 65.113-73.234M109.595 302.94c-13.797 2.989-11.932 21.104 2.335 22.694 6.782.755 183.162.284 185.192-.495 10.832-4.156 10.923-17.546.149-21.939-1.972-.804-184-1.057-187.676-.26m187.855 4.142c6.017 3.219 5.99 10.917-.05 14.073l-2 1.045-91.182.105c-60.38.07-91.931-.032-93.4-.301-8.757-1.602-9.722-12.852-1.327-15.475 1.143-.357 23.924-.455 93.909-.4l92.4.071 1.65.882"
       fill="#f4a485"
       id="path30" />
  </g>
</svg>
